<?xml version="1.0" standalone="no"?>
<!DOCTYPE svg PUBLIC "-//W3C//DTD SVG 20010904//EN"
 "http://www.w3.org/TR/2001/REC-SVG-20010904/DTD/svg10.dtd">
<svg version="1.0" xmlns="http://www.w3.org/2000/svg"
 width="700.000000pt" height="700.000000pt" viewBox="0 0 700.000000 700.000000"
 preserveAspectRatio="xMidYMid meet">
<metadata>
Created by potrace 1.14, written by Peter Selinger 2001-2017
</metadata>
<g transform="translate(0.000000,700.000000) scale(0.100000,-0.100000)"
fill="#000000" stroke="none">
<path d="M0 3500 l0 -3500 3500 0 3500 0 0 3500 0 3500 -3500 0 -3500 0 0
-3500z m4878 1367 l1372 -1372 -1375 -1375 -1375 -1375 -1375 1375 -1375 1375
1372 1372 c755 755 1375 1373 1378 1373 3 0 623 -618 1378 -1373z"/>
<path d="M2215 4780 l-1280 -1280 1283 -1283 1282 -1282 1282 1282 1283 1283
-1280 1280 c-704 704 -1282 1280 -1285 1280 -3 0 -581 -576 -1285 -1280z
m1352 428 c126 -128 146 -182 104 -273 -35 -76 -95 -115 -176 -115 l-43 0 -16
-71 c-9 -39 -21 -99 -28 -135 -6 -35 -14 -64 -18 -64 -3 0 -28 22 -54 49 l-49
49 38 169 c21 92 40 172 42 176 3 4 22 -8 44 -28 52 -47 96 -48 133 -4 14 17
26 40 26 51 0 10 -26 46 -57 79 l-57 60 -168 -168 -168 -167 -40 39 -40 39
207 208 c114 114 210 208 214 208 3 0 51 -46 106 -102z m-742 -678 l39 -40
-169 -170 -170 -170 95 -95 94 -95 -39 -40 -39 -40 -138 137 -138 138 207 207
c114 115 210 208 213 208 3 0 24 -18 45 -40z m1635 -295 l-40 -40 -137 137
-137 138 39 40 39 40 138 -137 138 -138 -40 -40z m-170 -170 l-40 -40 -137
137 -137 138 39 40 39 40 138 -137 138 -138 -40 -40z m-260 10 l134 -135 -39
-40 -39 -40 -138 137 -138 137 37 38 c20 21 40 38 43 38 3 0 66 -61 140 -135z
m-1830 -360 l164 -165 -39 -40 -39 -40 -63 62 -63 63 -170 -170 -170 -169 -40
39 -40 39 165 166 c91 91 165 170 165 175 0 6 -27 37 -60 70 l-60 59 37 38
c20 21 40 38 43 38 3 0 79 -74 170 -165z m1550 -190 l-40 -40 -137 137 -137
138 39 40 39 40 138 -137 138 -138 -40 -40z m1450 -30 l-40 -40 -98 98 -98 97
-44 -45 -44 -45 82 -83 82 -83 -40 -39 -40 -39 -83 82 -82 82 -85 -85 -85 -85
-40 40 -40 40 210 210 210 210 137 -137 138 -138 -40 -40z m-1620 -140 l-40
-40 -137 137 -137 138 39 40 39 40 138 -137 138 -138 -40 -40z m-260 10 l135
-135 -43 -42 -42 -43 -137 137 -137 138 39 40 c21 22 42 40 45 40 3 0 66 -61
140 -135z m895 -405 c-49 -49 -87 -91 -84 -93 2 -3 78 2 168 10 l163 15 49
-48 c27 -27 49 -51 49 -55 0 -3 -73 -11 -162 -18 -90 -7 -175 -14 -189 -17
l-26 -5 -13 -166 c-18 -232 -14 -225 -74 -164 l-49 50 11 148 c18 222 26 212
-81 105 l-93 -92 -39 40 -39 40 209 210 210 210 40 -40 40 -40 -90 -90z
m-1367 91 c199 -102 239 -348 81 -496 -67 -63 -125 -87 -209 -87 -118 -1 -227
68 -282 180 -34 70 -33 188 4 258 39 74 116 138 198 165 45 15 162 4 208 -20z
m776 -770 c17 -11 71 -61 121 -111 l90 -90 -210 -210 -210 -210 -40 40 -40 40
168 168 167 167 -53 53 c-62 61 -101 69 -142 27 -38 -37 -34 -83 10 -125 19
-19 32 -37 28 -41 -5 -4 -83 -24 -176 -45 l-167 -38 -50 49 c-28 27 -47 52
-42 56 4 3 57 16 117 28 157 32 145 26 145 77 0 56 19 101 58 137 61 58 158
70 226 28z"/>
<path d="M2639 2937 c-110 -58 -142 -197 -67 -283 76 -87 184 -94 268 -18 21
19 46 55 56 80 59 155 -109 299 -257 221z"/>
</g>
</svg>
